<svg width="20" height="11" viewBox="0 0 20 11" fill="none" xmlns="http://www.w3.org/2000/svg">
<path d="M19.7336 1.5527L10.6431 10.6431C10.5587 10.7277 10.4585 10.7947 10.3481 10.8405C10.2378 10.8862 10.1195 10.9098 10 10.9098C9.88054 10.9098 9.76224 10.8862 9.65189 10.8405C9.54153 10.7947 9.44127 10.7277 9.35685 10.6431L0.266401 1.5527C0.0958273 1.38213 0 1.15078 0 0.90955C0 0.668322 0.0958273 0.436974 0.266401 0.266401C0.436975 0.0958268 0.668322 0 0.90955 0C1.15078 0 1.38213 0.0958268 1.5527 0.266401L10 8.71484L18.4473 0.266401C18.5318 0.181941 18.632 0.114944 18.7424 0.069235C18.8527 0.0235258 18.971 0 19.0904 0C19.2099 0 19.3282 0.0235258 19.4385 0.069235C19.5489 0.114944 19.6491 0.181941 19.7336 0.266401C19.8181 0.35086 19.8851 0.451128 19.9308 0.56148C19.9765 0.671832 20 0.790106 20 0.90955C20 1.02899 19.9765 1.14727 19.9308 1.25762C19.8851 1.36797 19.8181 1.46824 19.7336 1.5527Z" fill="#031B15"/>
</svg>
