<svg width="30" height="30" viewBox="0 0 30 30" fill="none" xmlns="http://www.w3.org/2000/svg">
<path d="M27.5 0H7.5C6.83696 0 6.20107 0.263392 5.73223 0.732233C5.26339 1.20107 5 1.83696 5 2.5V5H2.5C1.83696 5 1.20107 5.26339 0.732233 5.73223C0.263392 6.20107 0 6.83696 0 7.5V27.5C0 28.163 0.263392 28.7989 0.732233 29.2678C1.20107 29.7366 1.83696 30 2.5 30H22.5C23.163 30 23.7989 29.7366 24.2678 29.2678C24.7366 28.7989 25 28.163 25 27.5V25H27.5C28.163 25 28.7989 24.7366 29.2678 24.2678C29.7366 23.7989 30 23.163 30 22.5V2.5C30 1.83696 29.7366 1.20107 29.2678 0.732233C28.7989 0.263392 28.163 0 27.5 0ZM7.5 2.5H27.5V13.3406L24.8906 10.7312C24.4218 10.2628 23.7862 9.9996 23.1234 9.9996C22.4607 9.9996 21.825 10.2628 21.3562 10.7312L9.58906 22.5H7.5V2.5ZM22.5 27.5H2.5V7.5H5V22.5C5 23.163 5.26339 23.7989 5.73223 24.2678C6.20107 24.7366 6.83696 25 7.5 25H22.5V27.5ZM27.5 22.5H13.125L23.125 12.5L27.5 16.875V22.5ZM13.75 12.5C14.4917 12.5 15.2167 12.2801 15.8334 11.868C16.4501 11.456 16.9307 10.8703 17.2145 10.1851C17.4984 9.49984 17.5726 8.74584 17.4279 8.01841C17.2833 7.29098 16.9261 6.6228 16.4017 6.09835C15.8772 5.5739 15.209 5.21675 14.4816 5.07205C13.7542 4.92736 13.0002 5.00162 12.3149 5.28545C11.6297 5.56928 11.044 6.04993 10.632 6.66661C10.2199 7.2833 10 8.00832 10 8.75C10 9.74456 10.3951 10.6984 11.0983 11.4017C11.8016 12.1049 12.7554 12.5 13.75 12.5ZM13.75 7.5C13.9972 7.5 14.2389 7.57331 14.4445 7.71066C14.65 7.84801 14.8102 8.04324 14.9049 8.27165C14.9995 8.50005 15.0242 8.75139 14.976 8.99386C14.9278 9.23634 14.8087 9.45907 14.6339 9.63388C14.4591 9.8087 14.2363 9.92775 13.9939 9.97598C13.7514 10.0242 13.5001 9.99946 13.2716 9.90485C13.0432 9.81024 12.848 9.65002 12.7107 9.44446C12.5733 9.2389 12.5 8.99723 12.5 8.75C12.5 8.41848 12.6317 8.10054 12.8661 7.86612C13.1005 7.6317 13.4185 7.5 13.75 7.5Z" fill="#7E8986"/>
</svg>
