<svg width="38" height="32" viewBox="0 0 38 32" fill="none" xmlns="http://www.w3.org/2000/svg">
<path d="M36.7333 29.1337H34.2V17.7337L34.5705 18.1042C34.8086 18.3419 35.1314 18.4753 35.4678 18.475C35.8042 18.4747 36.1267 18.3408 36.3644 18.1027C36.6021 17.8646 36.7355 17.5418 36.7352 17.2054C36.7349 16.8689 36.6009 16.5464 36.3628 16.3087L20.7907 0.741409C20.3157 0.266676 19.6716 0 19 0C18.3284 0 17.6843 0.266676 17.2093 0.741409L1.63717 16.3087C1.3997 16.5464 1.26637 16.8687 1.26652 17.2047C1.26667 17.5407 1.40028 17.8628 1.63796 18.1003C1.87564 18.3378 2.19791 18.4711 2.53389 18.4709C2.86987 18.4708 3.19203 18.3372 3.4295 18.0995L3.8 17.7337V29.1337H1.26667C0.930726 29.1337 0.608544 29.2672 0.370998 29.5047C0.133452 29.7423 0 30.0645 0 30.4004C0 30.7364 0.133452 31.0585 0.370998 31.2961C0.608544 31.5336 0.930726 31.6671 1.26667 31.6671H36.7333C37.0693 31.6671 37.3915 31.5336 37.629 31.2961C37.8665 31.0585 38 30.7364 38 30.4004C38 30.0645 37.8665 29.7423 37.629 29.5047C37.3915 29.2672 37.0693 29.1337 36.7333 29.1337ZM6.33333 15.2004L19 2.53374L31.6667 15.2004V29.1337H24.0667V20.2671C24.0667 19.9311 23.9332 19.609 23.6957 19.3714C23.4581 19.1339 23.1359 19.0004 22.8 19.0004H15.2C14.8641 19.0004 14.5419 19.1339 14.3043 19.3714C14.0668 19.609 13.9333 19.9311 13.9333 20.2671V29.1337H6.33333V15.2004ZM21.5333 29.1337H16.4667V21.5337H21.5333V29.1337Z" fill="#7E8986"/>
</svg>
