<svg width="33" height="33" viewBox="0 0 33 33" fill="none" xmlns="http://www.w3.org/2000/svg">
<path d="M18.4039 24.75C18.4039 25.1265 18.2922 25.4946 18.083 25.8077C17.8738 26.1208 17.5765 26.3648 17.2286 26.5089C16.8807 26.653 16.4979 26.6907 16.1286 26.6173C15.7593 26.5438 15.42 26.3625 15.1538 26.0962C14.8875 25.83 14.7062 25.4907 14.6327 25.1214C14.5593 24.7521 14.597 24.3693 14.7411 24.0214C14.8852 23.6735 15.1292 23.3762 15.4423 23.167C15.7554 22.9578 16.1235 22.8462 16.5 22.8462C17.0049 22.8462 17.4892 23.0467 17.8462 23.4038C18.2033 23.7608 18.4039 24.2451 18.4039 24.75ZM16.5 7.61538C13.0001 7.61538 10.1539 10.1776 10.1539 13.3269V13.9615C10.1539 14.2982 10.2876 14.621 10.5256 14.859C10.7636 15.097 11.0865 15.2308 11.4231 15.2308C11.7597 15.2308 12.0825 15.097 12.3206 14.859C12.5586 14.621 12.6923 14.2982 12.6923 13.9615V13.3269C12.6923 11.5817 14.401 10.1538 16.5 10.1538C18.599 10.1538 20.3077 11.5817 20.3077 13.3269C20.3077 15.0721 18.599 16.5 16.5 16.5C16.1634 16.5 15.8406 16.6337 15.6025 16.8717C15.3645 17.1098 15.2308 17.4326 15.2308 17.7692V19.0385C15.2308 19.3751 15.3645 19.6979 15.6025 19.9359C15.8406 20.174 16.1634 20.3077 16.5 20.3077C16.8366 20.3077 17.1595 20.174 17.3975 19.9359C17.6355 19.6979 17.7692 19.3751 17.7692 19.0385V18.9242C20.6631 18.3927 22.8462 16.0843 22.8462 13.3269C22.8462 10.1776 19.9999 7.61538 16.5 7.61538ZM33 16.5C33 19.7634 32.0323 22.9535 30.2193 25.6669C28.4062 28.3803 25.8293 30.4952 22.8143 31.744C19.7993 32.9929 16.4817 33.3196 13.281 32.683C10.0803 32.0463 7.14031 30.4748 4.83275 28.1673C2.52518 25.8597 0.953707 22.9197 0.31705 19.719C-0.319606 16.5183 0.00714919 13.2007 1.256 10.1857C2.50484 7.17074 4.61969 4.59379 7.3331 2.78075C10.0465 0.967708 13.2366 0 16.5 0C20.8747 0.00461971 25.0688 1.74449 28.1622 4.83784C31.2555 7.93119 32.9954 12.1253 33 16.5ZM30.4615 16.5C30.4615 13.7387 29.6427 11.0393 28.1086 8.74338C26.5745 6.44742 24.394 4.65794 21.8429 3.60122C19.2917 2.5445 16.4845 2.26802 13.7762 2.80673C11.068 3.34544 8.58027 4.67515 6.62771 6.6277C4.67515 8.58026 3.34544 11.068 2.80674 13.7762C2.26803 16.4845 2.54451 19.2917 3.60123 21.8429C4.65794 24.394 6.44743 26.5745 8.74339 28.1086C11.0394 29.6427 13.7387 30.4615 16.5 30.4615C20.2015 30.4573 23.7503 28.985 26.3677 26.3677C28.9851 23.7503 30.4573 20.2015 30.4615 16.5Z" fill="#7E8986"/>
</svg>
