<svg width="33" height="34" viewBox="0 0 33 34" fill="none" xmlns="http://www.w3.org/2000/svg">
<path d="M30.2217 3.77771H17.6293V1.25924C17.6293 0.925266 17.4966 0.604974 17.2605 0.368822C17.0243 0.132669 16.704 0 16.3701 0C16.0361 0 15.7158 0.132669 15.4797 0.368822C15.2435 0.604974 15.1108 0.925266 15.1108 1.25924V3.77771H2.51847C1.85053 3.77771 1.20995 4.04305 0.737643 4.51535C0.265338 4.98766 0 5.62824 0 6.29618V25.1847C0 25.8527 0.265338 26.4932 0.737643 26.9655C1.20995 27.4379 1.85053 27.7032 2.51847 27.7032H8.71391L5.3124 31.9531C5.10367 32.214 5.00714 32.5472 5.04403 32.8793C5.08093 33.2114 5.24824 33.5152 5.50916 33.7239C5.77007 33.9326 6.10322 34.0292 6.43531 33.9923C6.7674 33.9554 7.07123 33.7881 7.27996 33.5272L11.9376 27.7032H20.8026L25.4602 33.5272C25.5635 33.6564 25.6913 33.7639 25.8362 33.8437C25.9812 33.9235 26.1404 33.974 26.3048 33.9923C26.4693 34.0106 26.6357 33.9963 26.7946 33.9502C26.9535 33.9042 27.1018 33.8273 27.231 33.7239C27.3602 33.6206 27.4677 33.4928 27.5475 33.3478C27.6273 33.2029 27.6778 33.0437 27.6961 32.8793C27.7144 32.7148 27.7001 32.5484 27.654 32.3895C27.608 32.2306 27.5311 32.0823 27.4277 31.9531L24.0262 27.7032H30.2217C30.8896 27.7032 31.5302 27.4379 32.0025 26.9655C32.4748 26.4932 32.7401 25.8527 32.7401 25.1847V6.29618C32.7401 5.62824 32.4748 4.98766 32.0025 4.51535C31.5302 4.04305 30.8896 3.77771 30.2217 3.77771ZM30.2217 25.1847H2.51847V6.29618H30.2217V25.1847ZM12.5924 16.3701V20.1478C12.5924 20.4817 12.4597 20.802 12.2235 21.0382C11.9874 21.2743 11.6671 21.407 11.3331 21.407C10.9992 21.407 10.6789 21.2743 10.4427 21.0382C10.2066 20.802 10.0739 20.4817 10.0739 20.1478V16.3701C10.0739 16.0361 10.2066 15.7158 10.4427 15.4797C10.6789 15.2435 10.9992 15.1108 11.3331 15.1108C11.6671 15.1108 11.9874 15.2435 12.2235 15.4797C12.4597 15.7158 12.5924 16.0361 12.5924 16.3701ZM17.6293 13.8516V20.1478C17.6293 20.4817 17.4966 20.802 17.2605 21.0382C17.0243 21.2743 16.704 21.407 16.3701 21.407C16.0361 21.407 15.7158 21.2743 15.4797 21.0382C15.2435 20.802 15.1108 20.4817 15.1108 20.1478V13.8516C15.1108 13.5176 15.2435 13.1973 15.4797 12.9612C15.7158 12.725 16.0361 12.5924 16.3701 12.5924C16.704 12.5924 17.0243 12.725 17.2605 12.9612C17.4966 13.1973 17.6293 13.5176 17.6293 13.8516ZM22.6662 11.3331V20.1478C22.6662 20.4817 22.5336 20.802 22.2974 21.0382C22.0613 21.2743 21.741 21.407 21.407 21.407C21.073 21.407 20.7527 21.2743 20.5166 21.0382C20.2804 20.802 20.1478 20.4817 20.1478 20.1478V11.3331C20.1478 10.9992 20.2804 10.6789 20.5166 10.4427C20.7527 10.2066 21.073 10.0739 21.407 10.0739C21.741 10.0739 22.0613 10.2066 22.2974 10.4427C22.5336 10.6789 22.6662 10.9992 22.6662 11.3331Z" fill="#7E8986"/>
</svg>
