<svg width="36" height="33" viewBox="0 0 36 33" fill="none" xmlns="http://www.w3.org/2000/svg">
<path d="M17.7683 8.88605C16.2625 8.88605 14.7904 9.3326 13.5383 10.1692C12.2862 11.0058 11.3104 12.1949 10.7341 13.5862C10.1578 14.9774 10.007 16.5083 10.3008 17.9852C10.5946 19.4622 11.3198 20.8188 12.3846 21.8836C13.4494 22.9485 14.806 23.6736 16.283 23.9674C17.7599 24.2612 19.2908 24.1104 20.682 23.5341C22.0733 22.9578 23.2624 21.982 24.099 20.7299C24.9356 19.4778 25.3822 18.0057 25.3822 16.4999C25.3801 14.4812 24.5772 12.5458 23.1498 11.1184C21.7224 9.691 19.787 8.88815 17.7683 8.88605ZM17.7683 21.5757C16.7644 21.5757 15.7831 21.278 14.9483 20.7203C14.1136 20.1626 13.463 19.3698 13.0788 18.4423C12.6947 17.5148 12.5941 16.4942 12.79 15.5096C12.9859 14.525 13.4693 13.6206 14.1792 12.9107C14.889 12.2008 15.7935 11.7174 16.7781 11.5215C17.7627 11.3257 18.7833 11.4262 19.7108 11.8104C20.6383 12.1946 21.431 12.8451 21.9888 13.6799C22.5465 14.5146 22.8442 15.496 22.8442 16.4999C22.8442 17.8461 22.3094 19.1371 21.3575 20.0891C20.4056 21.041 19.1145 21.5757 17.7683 21.5757ZM35.2071 13.2021C35.1718 13.0234 35.0984 12.8544 34.9919 12.7066C34.8855 12.5588 34.7484 12.4357 34.5901 12.3456L29.8584 9.64902L29.8394 4.31618C29.8388 4.13252 29.7984 3.95117 29.7209 3.78466C29.6434 3.61816 29.5307 3.47046 29.3905 3.35177C27.6741 1.8999 25.6976 0.787284 23.5659 0.0730676C23.3981 0.0162492 23.2202 -0.00477771 23.0437 0.011341C22.8672 0.0274597 22.696 0.0803667 22.5412 0.166654L17.7683 2.83466L12.9907 0.161895C12.8358 0.075122 12.6644 0.0218155 12.4876 0.00542169C12.3109 -0.0109721 12.1326 0.00991146 11.9644 0.0667226C9.83435 0.786161 7.86006 1.90302 6.14617 3.35811C6.00622 3.47663 5.89362 3.62407 5.81612 3.79029C5.73863 3.95651 5.69808 4.13755 5.69728 4.32094L5.67348 9.65854L0.941817 12.3551C0.783516 12.4452 0.646472 12.5684 0.540001 12.7162C0.43353 12.864 0.360127 13.033 0.324781 13.2117C-0.10826 15.3877 -0.10826 17.6278 0.324781 19.8039C0.360127 19.9826 0.43353 20.1516 0.540001 20.2994C0.646472 20.4472 0.783516 20.5704 0.941817 20.6605L5.67348 23.3571L5.69252 28.6899C5.69309 28.8736 5.73353 29.0549 5.81103 29.2214C5.88853 29.3879 6.00126 29.5356 6.14142 29.6543C7.85781 31.1062 9.83436 32.2188 11.966 32.933C12.1338 32.9898 12.3118 33.0109 12.4882 32.9947C12.6647 32.9786 12.8359 32.9257 12.9907 32.8394L17.7683 30.1651L22.546 32.8378C22.7351 32.9432 22.9482 32.9978 23.1646 32.9965C23.3032 32.9964 23.4409 32.9739 23.5723 32.9298C25.7021 32.2114 27.6764 31.0956 29.3905 29.6416C29.5305 29.5231 29.6431 29.3757 29.7206 29.2094C29.7981 29.0432 29.8386 28.8622 29.8394 28.6788L29.8632 23.3412L34.5949 20.6446C34.7532 20.5545 34.8902 20.4314 34.9967 20.2836C35.1032 20.1358 35.1766 19.9668 35.2119 19.7881C35.6425 17.6137 35.6409 15.3759 35.2071 13.2021ZM32.8278 18.7396L28.296 21.3172C28.0975 21.4301 27.9331 21.5945 27.8202 21.7931C27.7282 21.9517 27.6314 22.1198 27.5331 22.2784C27.4072 22.4785 27.3401 22.7099 27.3395 22.9462L27.3157 28.0618C26.0976 29.0183 24.7406 29.7832 23.2915 30.33L18.7201 27.7826C18.5303 27.6776 18.3168 27.623 18.0999 27.624H18.0697C17.8778 27.624 17.6843 27.624 17.4923 27.624C17.2653 27.6183 17.0409 27.673 16.842 27.7826L12.2674 30.3364C10.8152 29.7938 9.45441 29.0326 8.23204 28.0792L8.21459 22.9716C8.21381 22.7348 8.14678 22.5029 8.02108 22.3022C7.92273 22.1436 7.82597 21.985 7.73556 21.8168C7.62345 21.6152 7.45906 21.4475 7.25969 21.3315L2.72313 18.7475C2.48837 17.2625 2.48837 15.7499 2.72313 14.2649L7.247 11.6825C7.44556 11.5696 7.60996 11.4052 7.72287 11.2067C7.81487 11.0481 7.91163 10.8799 8.00997 10.7213C8.13586 10.5213 8.20292 10.2899 8.20349 10.0535L8.22728 4.93798C9.44538 3.98141 10.8024 3.21649 12.2515 2.66969L16.8166 5.21715C17.0153 5.32728 17.2399 5.38206 17.467 5.37577C17.6589 5.37577 17.8524 5.37577 18.0443 5.37577C18.2713 5.38144 18.4958 5.3267 18.6947 5.21715L23.2693 2.66335C24.7215 3.20595 26.0823 3.96712 27.3046 4.92053L27.3221 10.0281C27.3229 10.2649 27.3899 10.4968 27.5156 10.6975C27.614 10.8561 27.7107 11.0148 27.8011 11.1829C27.9132 11.3845 28.0776 11.5522 28.277 11.6683L32.8136 14.2522C33.0514 15.7383 33.0541 17.2526 32.8215 18.7396H32.8278Z" fill="#7E8986"/>
</svg>
